{"accessors" : [{"bufferView" : 0, "byteOffset" : 0, "componentType" : 5123, "count" : 36672, "type" : "SCALAR", "max" : [6433], "min" : [0]}, {"bufferView" : 1, "byteOffset" : 0, "componentType" : 5126, "count" : 6434, "type" : "VEC3", "max" : [7.719299793243408, -1.4586999416351318, 11.022299766540527], "min" : [-7.716599941253662, -15.249300003051758, 0.050200000405311584]}, {"bufferView" : 1, "byteOffset" : 12, "componentType" : 5126, "count" : 6434, "type" : "VEC2", "max" : [0.4959999918937683, -0.6805999875068665], "min" : [0.008799999952316284, -0.9628000259399414]}, {"bufferView" : 1, "byteOffset" : 20, "componentType" : 5126, "count" : 6434, "type" : "VEC3", "max" : [0.9999340772628784, 0.9996938109397888, 0.9997783303260803], "min" : [-0.9999445080757141, -0.9999690651893616, -0.9997246265411377]}, {"bufferView" : 0, "byteOffset" : 73344, "componentType" : 5123, "count" : 31716, "type" : "SCALAR", "max" : [6095], "min" : [0]}, {"bufferView" : 2, "byteOffset" : 0, "componentType" : 5126, "count" : 6096, "type" : "VEC3", "max" : [4.750500202178955, -7.915800094604492, 7.824900150299072], "min" : [-4.74459981918335, -15.487700462341309, 5.610199928283691]}, {"bufferView" : 2, "byteOffset" : 12, "componentType" : 5126, "count" : 6096, "type" : "VEC2", "max" : [0.9871000051498413, -0.6014000177383423], "min" : [0.5001999735832214, -0.9919999837875366]}, {"bufferView" : 2, "byteOffset" : 20, "componentType" : 5126, "count" : 6096, "type" : "VEC3", "max" : [0.999980628490448, 0.9996179938316345, 0.9995198249816895], "min" : [-0.999980628490448, -0.9999316334724426, -0.9996604323387146]}, {"bufferView" : 0, "byteOffset" : 136776, "componentType" : 5123, "count" : 26028, "type" : "SCALAR", "max" : [5076], "min" : [0]}, {"bufferView" : 3, "byteOffset" : 0, "componentType" : 5126, "count" : 5077, "type" : "VEC3", "max" : [4.439499855041504, -8.035900115966797, 6.317699909210205], "min" : [-4.439499855041504, -15.178299903869629, 3.964400053024292]}, {"bufferView" : 3, "byteOffset" : 12, "componentType" : 5126, "count" : 5077, "type" : "VEC2", "max" : [0.98580002784729, -0.6014000177383423], "min" : [0.5001999735832214, -0.9904000163078308]}, {"bufferView" : 3, "byteOffset" : 20, "componentType" : 5126, "count" : 5077, "type" : "VEC3", "max" : [0.999980092048645, 0.9986951947212219, 0.9998347163200378], "min" : [-0.999980092048645, -0.9991998076438904, -0.9999825954437256]}, {"bufferView" : 0, "byteOffset" : 188832, "componentType" : 5123, "count" : 145632, "type" : "SCALAR", "max" : [25074], "min" : [0]}, {"bufferView" : 4, "byteOffset" : 0, "componentType" : 5126, "count" : 25075, "type" : "VEC3", "max" : [9.919899940490723, 13.964300155639648, 27.575899124145508], "min" : [-9.92039966583252, -15.306300163269043, 6.508299827575684]}, {"bufferView" : 4, "byteOffset" : 12, "componentType" : 5126, "count" : 25075, "type" : "VEC2", "max" : [0.9822999835014343, -0.01769999973475933], "min" : [0.01769999973475933, -0.6833999752998352]}, {"bufferView" : 4, "byteOffset" : 20, "componentType" : 5126, "count" : 25075, "type" : "VEC3", "max" : [1.000003457069397, 0.9999927878379822, 0.9998918175697327], "min" : [-0.9999983906745911, -1.0000026226043701, -1.000002384185791]}], "asset" : {"generator" : "Aspose.3D 20.12.2", "version" : "2.0"}, "buffers" : [{"uri" : "buffer.bin", "byteLength" : 8161652}], "bufferViews" : [{"buffer" : 0, "byteOffset" : 0, "byteLength" : 480096, "target" : 34963}, {"buffer" : 0, "byteOffset" : 480100, "byteLength" : 1173504, "byteStride" : 32, "target" : 34962}, {"buffer" : 0, "byteOffset" : 1653608, "byteLength" : 1014912, "byteStride" : 32, "target" : 34962}, {"buffer" : 0, "byteOffset" : 2668524, "byteLength" : 832896, "byteStride" : 32, "target" : 34962}, {"buffer" : 0, "byteOffset" : 3501424, "byteLength" : 4660224, "byteStride" : 32, "target" : 34962}], "meshes" : [{"primitives" : [{"attributes" : {"POSITION" : 1, "TEXCOORD_0" : 2, "NORMAL" : 3}, "indices" : 0, "mode" : 4}]}, {"primitives" : [{"attributes" : {"POSITION" : 5, "TEXCOORD_0" : 6, "NORMAL" : 7}, "indices" : 4, "mode" : 4}]}, {"primitives" : [{"attributes" : {"POSITION" : 9, "TEXCOORD_0" : 10, "NORMAL" : 11}, "indices" : 8, "mode" : 4}]}, {"primitives" : [{"attributes" : {"POSITION" : 13, "TEXCOORD_0" : 14, "NORMAL" : 15}, "indices" : 12, "mode" : 4}]}], "nodes" : [{"mesh" : 0, "name" : "12140_Skull_v3_jaw"}, {"mesh" : 1, "name" : "12140_Skull_v3_teeth"}, {"mesh" : 2, "name" : "12140_Skull_v3_teeth_lower"}, {"mesh" : 3, "name" : "12140_Skull_v3"}], "scene" : 0, "scenes" : [{"nodes" : [0, 1, 2, 3]}]}